<mxfile host="65bd71144e">
    <diagram id="6mHMAI9q664cfcVoQy3t" name="Modelo Conceitual">
        <mxGraphModel dx="313" dy="176" grid="1" gridSize="10" guides="1" tooltips="1" connect="1" arrows="1" fold="1" page="1" pageScale="1" pageWidth="850" pageHeight="1100" math="0" shadow="0">
            <root>
                <mxCell id="0"/>
                <mxCell id="1" parent="0"/>
                <mxCell id="2" value="Produto" style="rounded=0;whiteSpace=wrap;html=1;" vertex="1" parent="1">
                    <mxGeometry x="80" y="80" width="120" height="60" as="geometry"/>
                </mxCell>
                <mxCell id="3" value="Categoria" style="rounded=0;whiteSpace=wrap;html=1;" vertex="1" parent="1">
                    <mxGeometry x="440" y="80" width="120" height="60" as="geometry"/>
                </mxCell>
                <mxCell id="8" value="Tem" style="html=1;whiteSpace=wrap;aspect=fixed;shape=isoRectangle;" vertex="1" parent="1">
                    <mxGeometry x="280" y="86" width="80" height="48" as="geometry"/>
                </mxCell>
                <mxCell id="9" value="" style="line;strokeWidth=1;html=1;" vertex="1" parent="1">
                    <mxGeometry x="200" y="105" width="80" height="10" as="geometry"/>
                </mxCell>
                <mxCell id="10" value="" style="line;strokeWidth=1;html=1;" vertex="1" parent="1">
                    <mxGeometry x="360" y="105" width="80" height="10" as="geometry"/>
                </mxCell>
                <mxCell id="6BB1b_casGYvSGEzB2xR-12" value="(1, N)" style="text;html=1;strokeColor=none;fillColor=none;align=center;verticalAlign=middle;whiteSpace=wrap;rounded=0;" vertex="1" parent="1">
                    <mxGeometry x="200" y="89" width="40" height="20" as="geometry"/>
                </mxCell>
                <mxCell id="6BB1b_casGYvSGEzB2xR-13" value="(1, N)" style="text;html=1;strokeColor=none;fillColor=none;align=center;verticalAlign=middle;whiteSpace=wrap;rounded=0;" vertex="1" parent="1">
                    <mxGeometry x="400" y="90" width="40" height="20" as="geometry"/>
                </mxCell>
                <mxCell id="BK-ciZ1xiANmUdUoKCUm-10" value="Relationship" style="shape=rhombus;perimeter=rhombusPerimeter;whiteSpace=wrap;html=1;align=center;" vertex="1" parent="1">
                    <mxGeometry x="280" y="80" width="90" height="60" as="geometry"/>
                </mxCell>
            </root>
        </mxGraphModel>
    </diagram>
    <diagram id="l5oZXyKeEOeZD0-XCZdE" name="Modelo LÃ³gico">
        <mxGraphModel dx="716" dy="402" grid="1" gridSize="10" guides="1" tooltips="1" connect="1" arrows="1" fold="1" page="1" pageScale="1" pageWidth="850" pageHeight="1100" math="0" shadow="0">
            <root>
                <mxCell id="0"/>
                <mxCell id="1" parent="0"/>
                <mxCell id="O8pWZpFB9nztFm1SeQpB-1" value="produtos" style="shape=table;startSize=30;container=1;collapsible=1;childLayout=tableLayout;fixedRows=1;rowLines=0;fontStyle=1;align=center;resizeLast=1;" vertex="1" parent="1">
                    <mxGeometry x="80" y="80" width="200" height="210" as="geometry"/>
                </mxCell>
                <mxCell id="O8pWZpFB9nztFm1SeQpB-2" value="" style="shape=tableRow;horizontal=0;startSize=0;swimlaneHead=0;swimlaneBody=0;fillColor=none;collapsible=0;dropTarget=0;points=[[0,0.5],[1,0.5]];portConstraint=eastwest;top=0;left=0;right=0;bottom=1;" vertex="1" parent="O8pWZpFB9nztFm1SeQpB-1">
                    <mxGeometry y="30" width="200" height="30" as="geometry"/>
                </mxCell>
                <mxCell id="O8pWZpFB9nztFm1SeQpB-3" value="PK" style="shape=partialRectangle;connectable=0;fillColor=none;top=0;left=0;bottom=0;right=0;fontStyle=1;overflow=hidden;" vertex="1" parent="O8pWZpFB9nztFm1SeQpB-2">
                    <mxGeometry width="30" height="30" as="geometry">
                        <mxRectangle width="30" height="30" as="alternateBounds"/>
                    </mxGeometry>
                </mxCell>
                <mxCell id="O8pWZpFB9nztFm1SeQpB-4" value="id: UUID" style="shape=partialRectangle;connectable=0;fillColor=none;top=0;left=0;bottom=0;right=0;align=left;spacingLeft=6;fontStyle=5;overflow=hidden;" vertex="1" parent="O8pWZpFB9nztFm1SeQpB-2">
                    <mxGeometry x="30" width="170" height="30" as="geometry">
                        <mxRectangle width="170" height="30" as="alternateBounds"/>
                    </mxGeometry>
                </mxCell>
                <mxCell id="O8pWZpFB9nztFm1SeQpB-5" value="" style="shape=tableRow;horizontal=0;startSize=0;swimlaneHead=0;swimlaneBody=0;fillColor=none;collapsible=0;dropTarget=0;points=[[0,0.5],[1,0.5]];portConstraint=eastwest;top=0;left=0;right=0;bottom=0;" vertex="1" parent="O8pWZpFB9nztFm1SeQpB-1">
                    <mxGeometry y="60" width="200" height="30" as="geometry"/>
                </mxCell>
                <mxCell id="O8pWZpFB9nztFm1SeQpB-6" value="" style="shape=partialRectangle;connectable=0;fillColor=none;top=0;left=0;bottom=0;right=0;editable=1;overflow=hidden;" vertex="1" parent="O8pWZpFB9nztFm1SeQpB-5">
                    <mxGeometry width="30" height="30" as="geometry">
                        <mxRectangle width="30" height="30" as="alternateBounds"/>
                    </mxGeometry>
                </mxCell>
                <mxCell id="O8pWZpFB9nztFm1SeQpB-7" value="nome: string(50)" style="shape=partialRectangle;connectable=0;fillColor=none;top=0;left=0;bottom=0;right=0;align=left;spacingLeft=6;overflow=hidden;" vertex="1" parent="O8pWZpFB9nztFm1SeQpB-5">
                    <mxGeometry x="30" width="170" height="30" as="geometry">
                        <mxRectangle width="170" height="30" as="alternateBounds"/>
                    </mxGeometry>
                </mxCell>
                <mxCell id="O8pWZpFB9nztFm1SeQpB-8" value="" style="shape=tableRow;horizontal=0;startSize=0;swimlaneHead=0;swimlaneBody=0;fillColor=none;collapsible=0;dropTarget=0;points=[[0,0.5],[1,0.5]];portConstraint=eastwest;top=0;left=0;right=0;bottom=0;" vertex="1" parent="O8pWZpFB9nztFm1SeQpB-1">
                    <mxGeometry y="90" width="200" height="30" as="geometry"/>
                </mxCell>
                <mxCell id="O8pWZpFB9nztFm1SeQpB-9" value="" style="shape=partialRectangle;connectable=0;fillColor=none;top=0;left=0;bottom=0;right=0;editable=1;overflow=hidden;" vertex="1" parent="O8pWZpFB9nztFm1SeQpB-8">
                    <mxGeometry width="30" height="30" as="geometry">
                        <mxRectangle width="30" height="30" as="alternateBounds"/>
                    </mxGeometry>
                </mxCell>
                <mxCell id="O8pWZpFB9nztFm1SeQpB-10" value="descricao: string(200)" style="shape=partialRectangle;connectable=0;fillColor=none;top=0;left=0;bottom=0;right=0;align=left;spacingLeft=6;overflow=hidden;" vertex="1" parent="O8pWZpFB9nztFm1SeQpB-8">
                    <mxGeometry x="30" width="170" height="30" as="geometry">
                        <mxRectangle width="170" height="30" as="alternateBounds"/>
                    </mxGeometry>
                </mxCell>
                <mxCell id="O8pWZpFB9nztFm1SeQpB-11" value="" style="shape=tableRow;horizontal=0;startSize=0;swimlaneHead=0;swimlaneBody=0;fillColor=none;collapsible=0;dropTarget=0;points=[[0,0.5],[1,0.5]];portConstraint=eastwest;top=0;left=0;right=0;bottom=0;" vertex="1" parent="O8pWZpFB9nztFm1SeQpB-1">
                    <mxGeometry y="120" width="200" height="30" as="geometry"/>
                </mxCell>
                <mxCell id="O8pWZpFB9nztFm1SeQpB-12" value="" style="shape=partialRectangle;connectable=0;fillColor=none;top=0;left=0;bottom=0;right=0;editable=1;overflow=hidden;" vertex="1" parent="O8pWZpFB9nztFm1SeQpB-11">
                    <mxGeometry width="30" height="30" as="geometry">
                        <mxRectangle width="30" height="30" as="alternateBounds"/>
                    </mxGeometry>
                </mxCell>
                <mxCell id="O8pWZpFB9nztFm1SeQpB-13" value="valor: Integer" style="shape=partialRectangle;connectable=0;fillColor=none;top=0;left=0;bottom=0;right=0;align=left;spacingLeft=6;overflow=hidden;" vertex="1" parent="O8pWZpFB9nztFm1SeQpB-11">
                    <mxGeometry x="30" width="170" height="30" as="geometry">
                        <mxRectangle width="170" height="30" as="alternateBounds"/>
                    </mxGeometry>
                </mxCell>
                <mxCell id="c4BJXRIQRL7WW7O7M7os-1" style="shape=tableRow;horizontal=0;startSize=0;swimlaneHead=0;swimlaneBody=0;fillColor=none;collapsible=0;dropTarget=0;points=[[0,0.5],[1,0.5]];portConstraint=eastwest;top=0;left=0;right=0;bottom=0;" vertex="1" parent="O8pWZpFB9nztFm1SeQpB-1">
                    <mxGeometry y="150" width="200" height="30" as="geometry"/>
                </mxCell>
                <mxCell id="c4BJXRIQRL7WW7O7M7os-2" style="shape=partialRectangle;connectable=0;fillColor=none;top=0;left=0;bottom=0;right=0;editable=1;overflow=hidden;" vertex="1" parent="c4BJXRIQRL7WW7O7M7os-1">
                    <mxGeometry width="30" height="30" as="geometry">
                        <mxRectangle width="30" height="30" as="alternateBounds"/>
                    </mxGeometry>
                </mxCell>
                <mxCell id="c4BJXRIQRL7WW7O7M7os-3" value="data_criacao: Date" style="shape=partialRectangle;connectable=0;fillColor=none;top=0;left=0;bottom=0;right=0;align=left;spacingLeft=6;overflow=hidden;" vertex="1" parent="c4BJXRIQRL7WW7O7M7os-1">
                    <mxGeometry x="30" width="170" height="30" as="geometry">
                        <mxRectangle width="170" height="30" as="alternateBounds"/>
                    </mxGeometry>
                </mxCell>
                <mxCell id="WD2n0pp8GwyzOUwiinT6-1" style="shape=tableRow;horizontal=0;startSize=0;swimlaneHead=0;swimlaneBody=0;fillColor=none;collapsible=0;dropTarget=0;points=[[0,0.5],[1,0.5]];portConstraint=eastwest;top=0;left=0;right=0;bottom=0;" vertex="1" parent="O8pWZpFB9nztFm1SeQpB-1">
                    <mxGeometry y="180" width="200" height="30" as="geometry"/>
                </mxCell>
                <mxCell id="WD2n0pp8GwyzOUwiinT6-2" style="shape=partialRectangle;connectable=0;fillColor=none;top=0;left=0;bottom=0;right=0;editable=1;overflow=hidden;" vertex="1" parent="WD2n0pp8GwyzOUwiinT6-1">
                    <mxGeometry width="30" height="30" as="geometry">
                        <mxRectangle width="30" height="30" as="alternateBounds"/>
                    </mxGeometry>
                </mxCell>
                <mxCell id="WD2n0pp8GwyzOUwiinT6-3" value="data_atualizacao: Date" style="shape=partialRectangle;connectable=0;fillColor=none;top=0;left=0;bottom=0;right=0;align=left;spacingLeft=6;overflow=hidden;" vertex="1" parent="WD2n0pp8GwyzOUwiinT6-1">
                    <mxGeometry x="30" width="170" height="30" as="geometry">
                        <mxRectangle width="170" height="30" as="alternateBounds"/>
                    </mxGeometry>
                </mxCell>
                <mxCell id="d2FHeUTI5FDnjgJOtAPw-1" value="categorias" style="shape=table;startSize=30;container=1;collapsible=1;childLayout=tableLayout;fixedRows=1;rowLines=0;fontStyle=1;align=center;resizeLast=1;" vertex="1" parent="1">
                    <mxGeometry x="640" y="80" width="200" height="150" as="geometry"/>
                </mxCell>
                <mxCell id="d2FHeUTI5FDnjgJOtAPw-2" value="" style="shape=tableRow;horizontal=0;startSize=0;swimlaneHead=0;swimlaneBody=0;fillColor=none;collapsible=0;dropTarget=0;points=[[0,0.5],[1,0.5]];portConstraint=eastwest;top=0;left=0;right=0;bottom=1;" vertex="1" parent="d2FHeUTI5FDnjgJOtAPw-1">
                    <mxGeometry y="30" width="200" height="30" as="geometry"/>
                </mxCell>
                <mxCell id="d2FHeUTI5FDnjgJOtAPw-3" value="PK" style="shape=partialRectangle;connectable=0;fillColor=none;top=0;left=0;bottom=0;right=0;fontStyle=1;overflow=hidden;" vertex="1" parent="d2FHeUTI5FDnjgJOtAPw-2">
                    <mxGeometry width="30" height="30" as="geometry">
                        <mxRectangle width="30" height="30" as="alternateBounds"/>
                    </mxGeometry>
                </mxCell>
                <mxCell id="d2FHeUTI5FDnjgJOtAPw-4" value="id: UUID" style="shape=partialRectangle;connectable=0;fillColor=none;top=0;left=0;bottom=0;right=0;align=left;spacingLeft=6;fontStyle=5;overflow=hidden;" vertex="1" parent="d2FHeUTI5FDnjgJOtAPw-2">
                    <mxGeometry x="30" width="170" height="30" as="geometry">
                        <mxRectangle width="170" height="30" as="alternateBounds"/>
                    </mxGeometry>
                </mxCell>
                <mxCell id="d2FHeUTI5FDnjgJOtAPw-5" value="" style="shape=tableRow;horizontal=0;startSize=0;swimlaneHead=0;swimlaneBody=0;fillColor=none;collapsible=0;dropTarget=0;points=[[0,0.5],[1,0.5]];portConstraint=eastwest;top=0;left=0;right=0;bottom=0;" vertex="1" parent="d2FHeUTI5FDnjgJOtAPw-1">
                    <mxGeometry y="60" width="200" height="30" as="geometry"/>
                </mxCell>
                <mxCell id="d2FHeUTI5FDnjgJOtAPw-6" value="" style="shape=partialRectangle;connectable=0;fillColor=none;top=0;left=0;bottom=0;right=0;editable=1;overflow=hidden;" vertex="1" parent="d2FHeUTI5FDnjgJOtAPw-5">
                    <mxGeometry width="30" height="30" as="geometry">
                        <mxRectangle width="30" height="30" as="alternateBounds"/>
                    </mxGeometry>
                </mxCell>
                <mxCell id="d2FHeUTI5FDnjgJOtAPw-7" value="nome: string(50)" style="shape=partialRectangle;connectable=0;fillColor=none;top=0;left=0;bottom=0;right=0;align=left;spacingLeft=6;overflow=hidden;" vertex="1" parent="d2FHeUTI5FDnjgJOtAPw-5">
                    <mxGeometry x="30" width="170" height="30" as="geometry">
                        <mxRectangle width="170" height="30" as="alternateBounds"/>
                    </mxGeometry>
                </mxCell>
                <mxCell id="d2FHeUTI5FDnjgJOtAPw-14" style="shape=tableRow;horizontal=0;startSize=0;swimlaneHead=0;swimlaneBody=0;fillColor=none;collapsible=0;dropTarget=0;points=[[0,0.5],[1,0.5]];portConstraint=eastwest;top=0;left=0;right=0;bottom=0;" vertex="1" parent="d2FHeUTI5FDnjgJOtAPw-1">
                    <mxGeometry y="90" width="200" height="30" as="geometry"/>
                </mxCell>
                <mxCell id="d2FHeUTI5FDnjgJOtAPw-15" style="shape=partialRectangle;connectable=0;fillColor=none;top=0;left=0;bottom=0;right=0;editable=1;overflow=hidden;" vertex="1" parent="d2FHeUTI5FDnjgJOtAPw-14">
                    <mxGeometry width="30" height="30" as="geometry">
                        <mxRectangle width="30" height="30" as="alternateBounds"/>
                    </mxGeometry>
                </mxCell>
                <mxCell id="d2FHeUTI5FDnjgJOtAPw-16" value="data_criacao: Date" style="shape=partialRectangle;connectable=0;fillColor=none;top=0;left=0;bottom=0;right=0;align=left;spacingLeft=6;overflow=hidden;" vertex="1" parent="d2FHeUTI5FDnjgJOtAPw-14">
                    <mxGeometry x="30" width="170" height="30" as="geometry">
                        <mxRectangle width="170" height="30" as="alternateBounds"/>
                    </mxGeometry>
                </mxCell>
                <mxCell id="d2FHeUTI5FDnjgJOtAPw-17" style="shape=tableRow;horizontal=0;startSize=0;swimlaneHead=0;swimlaneBody=0;fillColor=none;collapsible=0;dropTarget=0;points=[[0,0.5],[1,0.5]];portConstraint=eastwest;top=0;left=0;right=0;bottom=0;" vertex="1" parent="d2FHeUTI5FDnjgJOtAPw-1">
                    <mxGeometry y="120" width="200" height="30" as="geometry"/>
                </mxCell>
                <mxCell id="d2FHeUTI5FDnjgJOtAPw-18" style="shape=partialRectangle;connectable=0;fillColor=none;top=0;left=0;bottom=0;right=0;editable=1;overflow=hidden;" vertex="1" parent="d2FHeUTI5FDnjgJOtAPw-17">
                    <mxGeometry width="30" height="30" as="geometry">
                        <mxRectangle width="30" height="30" as="alternateBounds"/>
                    </mxGeometry>
                </mxCell>
                <mxCell id="d2FHeUTI5FDnjgJOtAPw-19" value="data_atualizacao: Date" style="shape=partialRectangle;connectable=0;fillColor=none;top=0;left=0;bottom=0;right=0;align=left;spacingLeft=6;overflow=hidden;" vertex="1" parent="d2FHeUTI5FDnjgJOtAPw-17">
                    <mxGeometry x="30" width="170" height="30" as="geometry">
                        <mxRectangle width="170" height="30" as="alternateBounds"/>
                    </mxGeometry>
                </mxCell>
                <mxCell id="d2FHeUTI5FDnjgJOtAPw-20" value="produtos_categorias" style="shape=table;startSize=30;container=1;collapsible=1;childLayout=tableLayout;fixedRows=1;rowLines=0;fontStyle=1;align=center;resizeLast=1;" vertex="1" parent="1">
                    <mxGeometry x="360" y="80" width="200" height="150" as="geometry"/>
                </mxCell>
                <mxCell id="d2FHeUTI5FDnjgJOtAPw-21" value="" style="shape=tableRow;horizontal=0;startSize=0;swimlaneHead=0;swimlaneBody=0;fillColor=none;collapsible=0;dropTarget=0;points=[[0,0.5],[1,0.5]];portConstraint=eastwest;top=0;left=0;right=0;bottom=1;" vertex="1" parent="d2FHeUTI5FDnjgJOtAPw-20">
                    <mxGeometry y="30" width="200" height="30" as="geometry"/>
                </mxCell>
                <mxCell id="d2FHeUTI5FDnjgJOtAPw-22" value="PK" style="shape=partialRectangle;connectable=0;fillColor=none;top=0;left=0;bottom=0;right=0;fontStyle=1;overflow=hidden;" vertex="1" parent="d2FHeUTI5FDnjgJOtAPw-21">
                    <mxGeometry width="30" height="30" as="geometry">
                        <mxRectangle width="30" height="30" as="alternateBounds"/>
                    </mxGeometry>
                </mxCell>
                <mxCell id="d2FHeUTI5FDnjgJOtAPw-23" value="produto_id: UUID" style="shape=partialRectangle;connectable=0;fillColor=none;top=0;left=0;bottom=0;right=0;align=left;spacingLeft=6;fontStyle=5;overflow=hidden;" vertex="1" parent="d2FHeUTI5FDnjgJOtAPw-21">
                    <mxGeometry x="30" width="170" height="30" as="geometry">
                        <mxRectangle width="170" height="30" as="alternateBounds"/>
                    </mxGeometry>
                </mxCell>
                <mxCell id="d2FHeUTI5FDnjgJOtAPw-37" value="" style="shape=tableRow;horizontal=0;startSize=0;swimlaneHead=0;swimlaneBody=0;fillColor=none;collapsible=0;dropTarget=0;points=[[0,0.5],[1,0.5]];portConstraint=eastwest;top=0;left=0;right=0;bottom=1;" vertex="1" parent="d2FHeUTI5FDnjgJOtAPw-20">
                    <mxGeometry y="60" width="200" height="30" as="geometry"/>
                </mxCell>
                <mxCell id="d2FHeUTI5FDnjgJOtAPw-38" value="PK" style="shape=partialRectangle;connectable=0;fillColor=none;top=0;left=0;bottom=0;right=0;fontStyle=1;overflow=hidden;" vertex="1" parent="d2FHeUTI5FDnjgJOtAPw-37">
                    <mxGeometry width="30" height="30" as="geometry">
                        <mxRectangle width="30" height="30" as="alternateBounds"/>
                    </mxGeometry>
                </mxCell>
                <mxCell id="d2FHeUTI5FDnjgJOtAPw-39" value="categoria_id: UUID" style="shape=partialRectangle;connectable=0;fillColor=none;top=0;left=0;bottom=0;right=0;align=left;spacingLeft=6;fontStyle=5;overflow=hidden;" vertex="1" parent="d2FHeUTI5FDnjgJOtAPw-37">
                    <mxGeometry x="30" width="170" height="30" as="geometry">
                        <mxRectangle width="170" height="30" as="alternateBounds"/>
                    </mxGeometry>
                </mxCell>
                <mxCell id="d2FHeUTI5FDnjgJOtAPw-27" style="shape=tableRow;horizontal=0;startSize=0;swimlaneHead=0;swimlaneBody=0;fillColor=none;collapsible=0;dropTarget=0;points=[[0,0.5],[1,0.5]];portConstraint=eastwest;top=0;left=0;right=0;bottom=0;" vertex="1" parent="d2FHeUTI5FDnjgJOtAPw-20">
                    <mxGeometry y="90" width="200" height="30" as="geometry"/>
                </mxCell>
                <mxCell id="d2FHeUTI5FDnjgJOtAPw-28" style="shape=partialRectangle;connectable=0;fillColor=none;top=0;left=0;bottom=0;right=0;editable=1;overflow=hidden;" vertex="1" parent="d2FHeUTI5FDnjgJOtAPw-27">
                    <mxGeometry width="30" height="30" as="geometry">
                        <mxRectangle width="30" height="30" as="alternateBounds"/>
                    </mxGeometry>
                </mxCell>
                <mxCell id="d2FHeUTI5FDnjgJOtAPw-29" value="data_criacao: Date" style="shape=partialRectangle;connectable=0;fillColor=none;top=0;left=0;bottom=0;right=0;align=left;spacingLeft=6;overflow=hidden;" vertex="1" parent="d2FHeUTI5FDnjgJOtAPw-27">
                    <mxGeometry x="30" width="170" height="30" as="geometry">
                        <mxRectangle width="170" height="30" as="alternateBounds"/>
                    </mxGeometry>
                </mxCell>
                <mxCell id="d2FHeUTI5FDnjgJOtAPw-30" style="shape=tableRow;horizontal=0;startSize=0;swimlaneHead=0;swimlaneBody=0;fillColor=none;collapsible=0;dropTarget=0;points=[[0,0.5],[1,0.5]];portConstraint=eastwest;top=0;left=0;right=0;bottom=0;" vertex="1" parent="d2FHeUTI5FDnjgJOtAPw-20">
                    <mxGeometry y="120" width="200" height="30" as="geometry"/>
                </mxCell>
                <mxCell id="d2FHeUTI5FDnjgJOtAPw-31" style="shape=partialRectangle;connectable=0;fillColor=none;top=0;left=0;bottom=0;right=0;editable=1;overflow=hidden;" vertex="1" parent="d2FHeUTI5FDnjgJOtAPw-30">
                    <mxGeometry width="30" height="30" as="geometry">
                        <mxRectangle width="30" height="30" as="alternateBounds"/>
                    </mxGeometry>
                </mxCell>
                <mxCell id="d2FHeUTI5FDnjgJOtAPw-32" value="data_atualizacao: Date" style="shape=partialRectangle;connectable=0;fillColor=none;top=0;left=0;bottom=0;right=0;align=left;spacingLeft=6;overflow=hidden;" vertex="1" parent="d2FHeUTI5FDnjgJOtAPw-30">
                    <mxGeometry x="30" width="170" height="30" as="geometry">
                        <mxRectangle width="170" height="30" as="alternateBounds"/>
                    </mxGeometry>
                </mxCell>
                <mxCell id="d2FHeUTI5FDnjgJOtAPw-41" value="" style="fontSize=12;html=1;endArrow=ERzeroToMany;startArrow=ERmandOne;exitX=1;exitY=0.5;exitDx=0;exitDy=0;entryX=0;entryY=0.5;entryDx=0;entryDy=0;startFill=0;" edge="1" parent="1" source="O8pWZpFB9nztFm1SeQpB-5" target="d2FHeUTI5FDnjgJOtAPw-37">
                    <mxGeometry width="100" height="100" relative="1" as="geometry">
                        <mxPoint x="380" y="330" as="sourcePoint"/>
                        <mxPoint x="480" y="230" as="targetPoint"/>
                    </mxGeometry>
                </mxCell>
                <mxCell id="d2FHeUTI5FDnjgJOtAPw-42" value="" style="fontSize=12;html=1;endArrow=ERzeroToMany;startArrow=ERmandOne;exitX=0;exitY=0.5;exitDx=0;exitDy=0;startFill=0;entryX=1;entryY=0.5;entryDx=0;entryDy=0;" edge="1" parent="1" source="d2FHeUTI5FDnjgJOtAPw-5" target="d2FHeUTI5FDnjgJOtAPw-37">
                    <mxGeometry width="100" height="100" relative="1" as="geometry">
                        <mxPoint x="290" y="195" as="sourcePoint"/>
                        <mxPoint x="560" y="180" as="targetPoint"/>
                    </mxGeometry>
                </mxCell>
            </root>
        </mxGraphModel>
    </diagram>
</mxfile>